<svg width="21" height="14" viewBox="0 0 21 14" fill="none" xmlns="http://www.w3.org/2000/svg">
<path d="M13.0413 7.4375C13.0413 7.00893 12.9967 6.67857 12.9342 6.34821H6.75558V8.59821H10.4699C10.3181 9.55357 9.34487 11.4196 6.75558 11.4196C4.52344 11.4196 2.70201 9.57143 2.70201 7.28571C2.70201 5 4.52344 3.15179 6.75558 3.15179C8.03237 3.15179 8.88058 3.69643 9.36272 4.16071L11.1395 2.45536C9.99665 1.38393 8.52344 0.741072 6.75558 0.741072C3.13951 0.741072 0.210938 3.66964 0.210938 7.28571C0.210938 10.9018 3.13951 13.8304 6.75558 13.8304C10.5324 13.8304 13.0413 11.1786 13.0413 7.4375ZM20.7824 6.34821H18.9163V4.48214H17.0413V6.34821H15.1752V8.22321H17.0413V10.0893H18.9163V8.22321H20.7824V6.34821Z" fill="white"/>
</svg>
