<svg width="14" height="14" viewBox="0 0 14 14" fill="none" xmlns="http://www.w3.org/2000/svg">
<path d="M13.9286 5.55859C13.9286 5.30748 13.6607 5.20703 13.4598 5.17355L9.25781 4.5625L7.37444 0.753906C7.29911 0.594866 7.15681 0.410714 6.96429 0.410714C6.77176 0.410714 6.62946 0.594866 6.55413 0.753906L4.67076 4.5625L0.46875 5.17355C0.259487 5.20703 0 5.30748 0 5.55859C0 5.70926 0.108817 5.85156 0.209263 5.96038L3.25614 8.92355L2.53627 13.1088C2.5279 13.1674 2.51953 13.2176 2.51953 13.2762C2.51953 13.4939 2.62835 13.6948 2.87109 13.6948C2.98828 13.6948 3.0971 13.6529 3.20592 13.5943L6.96429 11.6189L10.7227 13.5943C10.8231 13.6529 10.9403 13.6948 11.0575 13.6948C11.3002 13.6948 11.4007 13.4939 11.4007 13.2762C11.4007 13.2176 11.4007 13.1674 11.3923 13.1088L10.6724 8.92355L13.7109 5.96038C13.8198 5.85156 13.9286 5.70926 13.9286 5.55859Z" fill="#FBC02D"/>
</svg>
